<svg width="40" height="40" viewBox="0 0 40 40" fill="none" xmlns="http://www.w3.org/2000/svg">
<rect width="40" height="40" rx="2" fill="white"/>
<path d="M7.5 32.575V31.63C9.12 31.63 10.065 31.33 10.335 30.73V8.095C10.065 7.495 9.12 7.195 7.5 7.195V6.25H18.57C22.29 6.25 25.11 6.925 27.03 8.275C28.95 9.625 29.91 11.17 29.91 12.91C29.91 14.56 29.415 16.015 28.425 17.275C27.435 18.505 25.965 19.405 24.015 19.975L30 30.685C30.3 31.315 31.29 31.63 32.97 31.63V32.575H31.035C28.665 32.575 26.91 32.44 25.77 32.17C24.66 31.9 23.82 31.255 23.25 30.235L17.805 20.605H16.05V30.73C16.32 31.33 17.265 31.63 18.885 31.63V32.575H7.5ZM16.05 7.78V19.075H17.535C19.575 19.075 21.135 18.625 22.215 17.725C23.295 16.795 23.835 15.205 23.835 12.955C23.835 11.215 23.22 9.925 21.99 9.085C20.79 8.215 19.125 7.78 16.995 7.78H16.05Z" fill="#60BAA1"/>
</svg>
